<svg width="50" height="80" viewBox="0 0 50 80" fill="none" xmlns="http://www.w3.org/2000/svg">
<path fill-rule="evenodd" clip-rule="evenodd" d="M20.1643 49.3038V54.1488L20.0687 53.9257C20.0587 53.8978 20.0488 53.8719 20.0368 53.846C19.1284 52.1606 18.1204 51.2123 16.9768 50.8976C15.8333 50.5829 14.7914 50.9753 14.0443 51.4076C14.0284 51.4176 14.0125 51.4275 13.9965 51.4395C13.1717 51.9893 12.4167 52.7005 12.1319 53.7186C11.847 54.7366 12.0362 55.8621 12.5781 57.2567C12.5841 57.2666 12.5881 57.2786 12.594 57.2886L14.124 60.8586C14.13 60.8685 14.134 60.8805 14.14 60.8904C17.0446 67.0043 19.8336 71.2399 22.4433 74.3738C22.6365 74.6049 22.9234 74.7404 23.2242 74.7404H36.9942C37.2133 74.7384 37.4245 74.6647 37.5998 74.5332C40.4985 72.3856 42.5624 67.3815 43.3373 62.6277C43.7238 60.251 43.7657 57.9381 43.1939 56.0294C42.6221 54.1206 41.2296 52.5431 39.1458 52.3C39.1079 52.298 39.0721 52.298 39.0342 52.3C38.6736 52.3 38.2154 52.3159 37.7433 52.4116C37.7174 52.4175 37.6895 52.4215 37.6636 52.4275C37.4026 51.8039 37.05 51.2681 36.5958 50.9453C35.8328 50.4035 35.0578 50.25 34.4283 50.26C33.8326 50.27 33.2708 50.4652 32.7867 50.8019C32.5695 50.4732 32.3384 50.1485 32.0536 49.9412C31.2985 49.3914 30.4937 49.24 29.8542 49.24C29.3262 49.24 28.8142 49.3715 28.3242 49.5747V49.3037L28.3243 46.9451C28.3243 44.8314 28.3223 42.5483 28.3243 41.0801C28.3283 38.8189 26.4915 37.0001 24.2443 37.0001C21.9972 37.0001 20.1643 38.8209 20.1643 41.0801V46.9451V49.3038ZM26.2843 41.0642C26.2863 39.8529 25.4476 39.0401 24.2443 39.0401C23.041 39.0401 22.2039 39.8668 22.2039 41.08V58.93C22.2139 59.4201 21.8733 59.8464 21.3951 59.948C20.917 60.0476 20.4329 59.7946 20.2437 59.3444L18.2515 54.8182C18.2475 54.8102 18.2395 54.8102 18.2356 54.8022C17.4786 53.4077 16.847 52.9714 16.4347 52.8578C16.0382 52.7483 15.6238 52.8678 15.1278 53.1447C15.1198 53.1507 15.1198 53.1547 15.1118 53.1607C14.4763 53.587 14.1974 53.8818 14.0918 54.2603C13.9863 54.6388 14.0261 55.3082 14.4743 56.4757C14.4803 56.4896 14.4843 56.4936 14.4903 56.5075L15.9884 60.0138L16.0043 60.0457C18.7458 65.8127 21.3377 69.7473 23.7502 72.6998H36.564C38.4665 71.1162 40.64 66.5202 41.3293 62.2927C41.6839 60.1153 41.662 58.0494 41.2337 56.619C40.8153 55.2224 40.1918 54.5092 38.9865 54.3399C38.7375 54.3419 38.4108 54.3658 38.1419 54.4196C37.859 54.4773 37.6558 55.5869 37.6797 55.563C37.3829 55.832 36.9585 55.9017 36.5919 55.7443C36.2234 55.5869 35.9824 55.2303 35.9744 54.8299C35.9744 54.1067 35.7353 52.8298 35.4165 52.6027C35.0978 52.3756 34.6017 52.2999 34.4603 52.2999C33.9503 52.3078 33.7272 53.4254 33.3128 54.2561C33.0996 54.6725 32.6295 54.8917 32.1752 54.7861C31.719 54.6805 31.3923 54.2781 31.3843 53.8099C31.3843 53.0668 31.1553 51.7979 30.8584 51.5827C30.5616 51.3676 30.1014 51.2799 29.8543 51.2799C29.3025 51.2799 28.4538 52.7521 28.2287 53.2203C28.0255 53.6526 27.5514 53.8876 27.0832 53.7841C26.617 53.6805 26.2843 53.2681 26.2843 52.79C26.2704 50.2797 26.2803 43.7397 26.2843 41.0642Z" fill="#6E6E6E"/>
<path d="M24.2444 39.04C25.4477 39.04 26.2864 39.8528 26.2844 41.0641L26.2843 41.1622C26.2838 41.5039 26.2832 41.9033 26.2825 42.3452C26.2782 45.4383 26.2724 50.6199 26.2844 52.7899C26.2844 53.268 26.6171 53.6804 27.0833 53.784C27.5515 53.8876 28.0256 53.6525 28.2288 53.2202C28.4539 52.752 29.3026 51.2798 29.8544 51.2798C30.1015 51.2798 30.5616 51.3675 30.8585 51.5827C31.1554 51.7978 31.3844 53.0668 31.3844 53.8098C31.3924 54.278 31.7191 54.6804 32.1753 54.786C32.6296 54.8916 33.0997 54.6725 33.3129 54.2561C33.7273 53.4253 33.9504 52.3078 34.4604 52.2998C34.6018 52.2998 35.0979 52.3755 35.4166 52.6026C35.7354 52.8297 35.9745 54.1067 35.9745 54.8298C35.9824 55.2302 36.2235 55.5868 36.592 55.7442C36.9586 55.9016 37.3829 55.8319 37.6798 55.5629C37.6559 55.5868 37.8591 54.4773 38.142 54.4195C38.4109 54.3657 38.7376 54.3418 38.9866 54.3398C40.1919 54.5091 40.8154 55.2224 41.2338 56.6189C41.6621 58.0493 41.684 60.1152 41.3294 62.2926C40.6401 66.5201 38.4666 71.1162 36.5641 72.6997H23.7503C21.3378 69.7473 18.7459 65.8127 16.0044 60.0456L15.9885 60.0137L14.4904 56.5075C14.4844 56.4935 14.4804 56.4895 14.4744 56.4756C14.0262 55.3081 13.9863 54.6388 14.0919 54.2603C14.1975 53.8817 14.4764 53.5869 15.1119 53.1606C15.1199 53.1546 15.1199 53.1506 15.1279 53.1447C15.6239 52.8677 16.0383 52.7482 16.4347 52.8578C16.8471 52.9713 17.4787 53.4076 18.2357 54.8022C18.2396 54.8101 18.2476 54.8101 18.2516 54.8181L20.2438 59.3443C20.433 59.7946 20.9171 60.0476 21.3952 59.948C21.8734 59.8464 22.214 59.42 22.204 58.93V41.08C22.204 39.8667 23.0411 39.04 24.2444 39.04Z" fill="white"/>
</svg>
