<svg xmlns="http://www.w3.org/2000/svg" width="25" height="24" viewBox="0 0 25 24">
  <path fill="#28405B" d="M9.21428571,0.25 C9.62849928,0.25 9.96428571,0.585786438 9.96428571,1 C9.96428571,2.22664455 11.0851036,3.25 12.5,3.25 C13.9148964,3.25 15.0357143,2.22664455 15.0357143,1 C15.0357143,0.620304234 15.3178682,0.306509039 15.6839437,0.256846616 L15.7857143,0.25 L17.4285714,0.25 C21.3753991,0.25 24.6153105,3.1346366 24.745908,6.77172171 L24.75,7 L24.75,12.25 C24.75,13.0475109 24.1095505,13.6765753 23.3194538,13.7440099 L23.1785714,13.75 L19.75,13.75 L19.75,22.25 C19.75,23.0456278 19.1145852,23.676366 18.3278145,23.7439924 L18.1875,23.75 L6.8125,23.75 C6.00959769,23.75 5.32957721,23.1634633 5.25649748,22.3886122 L5.25,22.25 L5.25,13.75 L1.82142857,13.75 C1.01542462,13.75 0.330197092,13.1652417 0.256548366,12.3889086 L0.25,12.25 L0.25,7 C0.25,3.3324883 3.4093639,0.37300452 7.32569403,0.253736757 L7.57142857,0.25 L9.21428571,0.25 Z M8.544,1.75 L7.57142857,1.75 C4.41877622,1.75 1.87378445,4.00515222 1.75438159,6.79494001 L1.75,7 L1.75,12.25 L1.75357976,12.2432516 L1.82142857,12.25 L5.25,12.25 L5.25,8 C5.25,7.58578644 5.58578644,7.25 6,7.25 C6.37969577,7.25 6.69349096,7.53215388 6.74315338,7.89822944 L6.75,8 L6.75,22.25 L6.75568574,22.2437768 L6.8125,22.25 L18.1875,22.25 L18.2443143,22.2437768 L18.25,22.25 L18.25,8 C18.25,7.58578644 18.5857864,7.25 19,7.25 C19.3796958,7.25 19.693491,7.53215388 19.7431534,7.89822944 L19.75,8 L19.75,12.25 L23.1785714,12.25 L23.2464202,12.2432516 L23.25,12.25 L23.25,7 C23.25,4.18515593 20.7800714,1.86298362 17.6581425,1.7539997 L17.4285714,1.75 L16.455,1.75 L16.4531298,1.76034844 C16.0742445,3.47681458 14.4376029,4.75 12.5,4.75 C10.6315972,4.75 9.04304236,3.56613244 8.59223429,1.94252149 L8.544,1.75 Z"/>
</svg>
